ffmpeg version git-2026-04-19-de18feb Copyright (c) 2000-2026 the FFmpeg developers
  built with gcc 9 (Ubuntu 9.4.0-1ubuntu1~20.04.2)
  configuration: --enable-shared --enable-gpl --enable-libx264
  libavutil      60. 30.100 / 60. 30.100
  libavcodec     62. 30.100 / 62. 30.100
  libavformat    62. 13.102 / 62. 13.102
  libavdevice    62.  4.100 / 62.  4.100
  libavfilter    11. 15.101 / 11. 15.101
  libswscale      9.  7.100 /  9.  7.100
  libswresample   6.  4.100 /  6.  4.100
[in#0/x11grab @ 0x5575af0e7c40] Stream #0: not enough frames to estimate rate; consider increasing probesize
Input #0, x11grab, from ':0.0+0,0':
  Duration: N/A, start: 1777385408.317592, bitrate: 3678192 kb/s
  Stream #0:0: Video: rawvideo (BGR[0] / 0x524742), bgr0, 2870x1602, 3678192 kb/s, 25 fps, 1000k tbr, 1000k tbn, start 1777385408.317592
Stream mapping:
  Stream #0:0 -> #0:0 (rawvideo (native) -> h264 (libx264))
[libx264 @ 0x5575af0f5f00] using cpu capabilities: MMX2 SSE2Fast SSSE3 SSE4.2 AVX FMA3 BMI2 AVX2
[libx264 @ 0x5575af0f5f00] profile High, level 5.0
[libx264 @ 0x5575af0f5f00] 264 - core 155 r2917 0a84d98 - H.264/MPEG-4 AVC codec - Copyleft 2003-2018 - http://www.videolan.org/x264.html - options: cabac=1 ref=1 deblock=1:0:0 analyse=0x3:0x113 me=hex subme=2 psy=1 psy_rd=1.00:0.00 mixed_ref=0 me_range=16 chroma_me=1 trellis=0 8x8dct=1 cqm=0 deadzone=21,11 fast_pskip=1 chroma_qp_offset=0 threads=6 lookahead_threads=2 sliced_threads=0 nr=0 decimate=1 interlaced=0 bluray_compat=0 constrained_intra=0 bframes=3 b_pyramid=2 b_adapt=1 b_bias=0 direct=1 weightb=1 open_gop=0 weightp=1 keyint=250 keyint_min=25 scenecut=40 intra_refresh=0 rc_lookahead=10 rc=crf mbtree=1 crf=23.0 qcomp=0.60 qpmin=0 qpmax=69 qpstep=4 ip_ratio=1.40 aq=1:1.00
Output #0, matroska, to '/home/lmy/catkin_ws/recordings_tmp/exp_10_point_v3/screen.mkv':
  Metadata:
    encoder         : Lavf62.13.102
  Stream #0:0: Video: h264 (H264 / 0x34363248), yuv420p(tv, progressive), 2870x1602, q=2-31, 25 fps, 1k tbn
    Metadata:
      encoder         : Lavc62.30.100 libx264
    Side data:
      CPB properties: bitrate max/min/avg: 0/0/0 buffer size: 0 vbv_delay: N/A
frame=    0 fps=0.0 q=0.0 size=       0KiB time=N/A bitrate=N/A speed=N/A elapsed=0:00:00.50    frame=    0 fps=0.0 q=0.0 size=       0KiB time=N/A bitrate=N/A dup=0 drop=1 speed=N/A elapsed=0:00:01.00    frame=    4 fps=2.7 q=28.0 size=       1KiB time=00:00:00.08 bitrate=  59.4kbits/s dup=0 drop=1 speed=0.0533x elapsed=0:00:01.50    frame=   14 fps=7.0 q=28.0 size=       1KiB time=00:00:00.52 bitrate=   9.1kbits/s dup=0 drop=3 speed=0.26x elapsed=0:00:02.00    frame=   33 fps= 13 q=28.0 size=       1KiB time=00:00:01.36 bitrate=   3.5kbits/s dup=0 drop=4 speed=0.543x elapsed=0:00:02.50    frame=   51 fps= 17 q=28.0 size=       1KiB time=00:00:02.12 bitrate=   2.2kbits/s dup=0 drop=4 speed=0.706x elapsed=0:00:03.00    frame=   64 fps= 18 q=28.0 size=       1KiB time=00:00:02.64 bitrate=   1.8kbits/s dup=0 drop=4 speed=0.753x elapsed=0:00:03.50    frame=   77 fps= 19 q=28.0 size=       1KiB time=00:00:03.20 bitrate=   1.5kbits/s dup=0 drop=4 speed=0.799x elapsed=0:00:04.00    frame=   89 fps= 20 q=28.0 size=       1KiB time=00:00:03.64 bitrate=   1.3kbits/s dup=0 drop=4 speed=0.808x elapsed=0:00:04.50    frame=  102 fps= 20 q=28.0 size=       1KiB time=00:00:04.16 bitrate=   1.1kbits/s dup=0 drop=4 speed=0.831x elapsed=0:00:05.00    frame=  114 fps= 21 q=28.0 size=       1KiB time=00:00:04.64 bitrate=   1.0kbits/s dup=0 drop=4 speed=0.843x elapsed=0:00:05.50    frame=  127 fps= 21 q=28.0 size=     162KiB time=00:00:05.20 bitrate= 254.8kbits/s dup=0 drop=4 speed=0.866x elapsed=0:00:06.00    frame=  139 fps= 21 q=28.0 size=     162KiB time=00:00:05.64 bitrate= 235.0kbits/s dup=0 drop=4 speed=0.867x elapsed=0:00:06.50    frame=  152 fps= 22 q=28.0 size=     162KiB time=00:00:06.16 bitrate= 215.1kbits/s dup=0 drop=4 speed=0.879x elapsed=0:00:07.00    frame=  164 fps= 22 q=28.0 size=     162KiB time=00:00:06.68 bitrate= 198.4kbits/s dup=0 drop=4 speed=0.89x elapsed=0:00:07.50    frame=  177 fps= 22 q=28.0 size=     162KiB time=00:00:07.16 bitrate= 185.1kbits/s dup=0 drop=4 speed=0.894x elapsed=0:00:08.00    frame=  189 fps= 22 q=28.0 size=     162KiB time=00:00:07.64 bitrate= 173.5kbits/s dup=0 drop=4 speed=0.898x elapsed=0:00:08.50    frame=  202 fps= 22 q=28.0 size=     162KiB time=00:00:08.20 bitrate= 161.6kbits/s dup=0 drop=4 speed=0.91x elapsed=0:00:09.00    frame=  214 fps= 23 q=28.0 size=     162KiB time=00:00:08.68 bitrate= 152.7kbits/s dup=0 drop=4 speed=0.913x elapsed=0:00:09.50    frame=  227 fps= 23 q=28.0 size=     162KiB time=00:00:09.16 bitrate= 144.7kbits/s dup=0 drop=4 speed=0.915x elapsed=0:00:10.00    frame=  239 fps= 23 q=28.0 size=     162KiB time=00:00:09.68 bitrate= 136.9kbits/s dup=0 drop=4 speed=0.921x elapsed=0:00:10.50    frame=  252 fps= 23 q=28.0 size=     249KiB time=00:00:10.16 bitrate= 200.9kbits/s dup=0 drop=4 speed=0.923x elapsed=0:00:11.00    frame=  264 fps= 23 q=28.0 size=     249KiB time=00:00:10.68 bitrate= 191.1kbits/s dup=0 drop=4 speed=0.928x elapsed=0:00:11.50    frame=  277 fps= 23 q=28.0 size=     249KiB time=00:00:11.16 bitrate= 182.9kbits/s dup=0 drop=4 speed=0.929x elapsed=0:00:12.00    frame=  289 fps= 23 q=28.0 size=     249KiB time=00:00:11.64 bitrate= 175.4kbits/s dup=0 drop=4 speed=0.93x elapsed=0:00:12.50    frame=  302 fps= 23 q=28.0 size=     249KiB time=00:00:12.16 bitrate= 167.9kbits/s dup=0 drop=4 speed=0.935x elapsed=0:00:13.00    frame=  314 fps= 23 q=28.0 size=     249KiB time=00:00:12.68 bitrate= 161.0kbits/s dup=0 drop=4 speed=0.939x elapsed=0:00:13.50    frame=  327 fps= 23 q=28.0 size=     249KiB time=00:00:13.20 bitrate= 154.6kbits/s dup=0 drop=4 speed=0.942x elapsed=0:00:14.01    frame=  339 fps= 23 q=28.0 size=     249KiB time=00:00:13.68 bitrate= 149.2kbits/s dup=0 drop=4 speed=0.943x elapsed=0:00:14.51    frame=  352 fps= 23 q=28.0 size=     249KiB time=00:00:14.16 bitrate= 144.2kbits/s dup=0 drop=4 speed=0.943x elapsed=0:00:15.01    frame=  364 fps= 23 q=28.0 size=     249KiB time=00:00:14.68 bitrate= 139.1kbits/s dup=0 drop=4 speed=0.946x elapsed=0:00:15.51    frame=  377 fps= 24 q=28.0 size=     256KiB time=00:00:15.16 bitrate= 138.3kbits/s dup=0 drop=4 speed=0.947x elapsed=0:00:16.01    frame=  390 fps= 24 q=28.0 size=     256KiB time=00:00:15.68 bitrate= 133.7kbits/s dup=0 drop=4 speed=0.95x elapsed=0:00:16.51    frame=  402 fps= 24 q=28.0 size=     256KiB time=00:00:16.20 bitrate= 129.5kbits/s dup=0 drop=4 speed=0.952x elapsed=0:00:17.01    frame=  414 fps= 24 q=28.0 size=     256KiB time=00:00:16.68 bitrate= 125.7kbits/s dup=0 drop=4 speed=0.952x elapsed=0:00:17.51    frame=  427 fps= 24 q=28.0 size=     256KiB time=00:00:17.20 bitrate= 121.9kbits/s dup=0 drop=4 speed=0.955x elapsed=0:00:18.01    frame=  439 fps= 24 q=28.0 size=     256KiB time=00:00:17.64 bitrate= 118.9kbits/s dup=0 drop=4 speed=0.953x elapsed=0:00:18.51    frame=  452 fps= 24 q=28.0 size=     256KiB time=00:00:18.20 bitrate= 115.2kbits/s dup=0 drop=4 speed=0.957x elapsed=0:00:19.01    frame=  464 fps= 24 q=28.0 size=     256KiB time=00:00:18.72 bitrate= 112.0kbits/s dup=0 drop=4 speed=0.959x elapsed=0:00:19.51    frame=  477 fps= 24 q=28.0 size=     256KiB time=00:00:19.20 bitrate= 109.2kbits/s dup=0 drop=4 speed=0.959x elapsed=0:00:20.01    frame=  490 fps= 24 q=28.0 size=     256KiB time=00:00:19.68 bitrate= 106.6kbits/s dup=0 drop=4 speed=0.959x elapsed=0:00:20.52    frame=  502 fps= 24 q=28.0 size=     512KiB time=00:00:20.20 bitrate= 207.6kbits/s dup=0 drop=4 speed=0.961x elapsed=0:00:21.02    frame=  514 fps= 24 q=28.0 size=     512KiB time=00:00:20.68 bitrate= 202.8kbits/s dup=0 drop=4 speed=0.961x elapsed=0:00:21.52    frame=  527 fps= 24 q=28.0 size=     512KiB time=00:00:21.16 bitrate= 198.2kbits/s dup=0 drop=4 speed=0.961x elapsed=0:00:22.02    frame=  540 fps= 24 q=28.0 size=     512KiB time=00:00:21.68 bitrate= 193.5kbits/s dup=0 drop=4 speed=0.962x elapsed=0:00:22.52    frame=  552 fps= 24 q=28.0 size=     512KiB time=00:00:22.20 bitrate= 188.9kbits/s dup=0 drop=4 speed=0.964x elapsed=0:00:23.02    frame=  565 fps= 24 q=28.0 size=     512KiB time=00:00:22.68 bitrate= 184.9kbits/s dup=0 drop=4 speed=0.964x elapsed=0:00:23.52    frame=  577 fps= 24 q=28.0 size=     512KiB time=00:00:23.16 bitrate= 181.1kbits/s dup=0 drop=4 speed=0.964x elapsed=0:00:24.02    frame=  590 fps= 24 q=28.0 size=     512KiB time=00:00:23.68 bitrate= 177.1kbits/s dup=0 drop=4 speed=0.965x elapsed=0:00:24.52    frame=  602 fps= 24 q=28.0 size=     512KiB time=00:00:24.16 bitrate= 173.6kbits/s dup=0 drop=4 speed=0.965x elapsed=0:00:25.02    frame=  615 fps= 24 q=28.0 size=     512KiB time=00:00:24.68 bitrate= 169.9kbits/s dup=0 drop=4 speed=0.967x elapsed=0:00:25.52    frame=  627 fps= 24 q=28.0 size=     512KiB time=00:00:25.20 bitrate= 166.4kbits/s dup=0 drop=4 speed=0.968x elapsed=0:00:26.02    frame=  640 fps= 24 q=28.0 size=     512KiB time=00:00:25.72 bitrate= 163.1kbits/s dup=0 drop=4 speed=0.97x elapsed=0:00:26.52    frame=  652 fps= 24 q=28.0 size=     512KiB time=00:00:26.16 bitrate= 160.3kbits/s dup=0 drop=4 speed=0.968x elapsed=0:00:27.02    frame=  665 fps= 24 q=28.0 size=     512KiB time=00:00:26.72 bitrate= 157.0kbits/s dup=0 drop=4 speed=0.971x elapsed=0:00:27.52    frame=  677 fps= 24 q=28.0 size=     512KiB time=00:00:27.16 bitrate= 154.4kbits/s dup=0 drop=4 speed=0.969x elapsed=0:00:28.02    frame=  690 fps= 24 q=28.0 size=     512KiB time=00:00:27.68 bitrate= 151.5kbits/s dup=0 drop=4 speed=0.97x elapsed=0:00:28.52    frame=  702 fps= 24 q=28.0 size=     512KiB time=00:00:28.20 bitrate= 148.7kbits/s dup=0 drop=4 speed=0.971x elapsed=0:00:29.03    frame=  715 fps= 24 q=28.0 size=     512KiB time=00:00:28.72 bitrate= 146.0kbits/s dup=0 drop=4 speed=0.973x elapsed=0:00:29.53    frame=  727 fps= 24 q=28.0 size=     512KiB time=00:00:29.20 bitrate= 143.6kbits/s dup=0 drop=4 speed=0.972x elapsed=0:00:30.03    frame=  740 fps= 24 q=28.0 size=     512KiB time=00:00:29.68 bitrate= 141.3kbits/s dup=0 drop=4 speed=0.972x elapsed=0:00:30.53    frame=  752 fps= 24 q=28.0 size=     768KiB time=00:00:30.20 bitrate= 208.3kbits/s dup=0 drop=4 speed=0.973x elapsed=0:00:31.03    frame=  765 fps= 24 q=28.0 size=     768KiB time=00:00:30.72 bitrate= 204.8kbits/s dup=0 drop=4 speed=0.974x elapsed=0:00:31.53    frame=  777 fps= 24 q=28.0 size=     768KiB time=00:00:31.20 bitrate= 201.6kbits/s dup=0 drop=4 speed=0.974x elapsed=0:00:32.03    frame=  790 fps= 24 q=28.0 size=     768KiB time=00:00:31.68 bitrate= 198.6kbits/s dup=0 drop=4 speed=0.974x elapsed=0:00:32.53    frame=  802 fps= 24 q=28.0 size=     768KiB time=00:00:32.16 bitrate= 195.6kbits/s dup=0 drop=4 speed=0.974x elapsed=0:00:33.03    frame=  815 fps= 24 q=28.0 size=     768KiB time=00:00:32.72 bitrate= 192.3kbits/s dup=0 drop=4 speed=0.976x elapsed=0:00:33.53    frame=  827 fps= 24 q=28.0 size=     768KiB time=00:00:33.20 bitrate= 189.5kbits/s dup=0 drop=4 speed=0.975x elapsed=0:00:34.03    frame=  840 fps= 24 q=28.0 size=     768KiB time=00:00:33.68 bitrate= 186.8kbits/s dup=0 drop=4 speed=0.975x elapsed=0:00:34.53    frame=  853 fps= 24 q=28.0 size=     768KiB time=00:00:34.20 bitrate= 184.0kbits/s dup=0 drop=4 speed=0.976x elapsed=0:00:35.03    frame=  865 fps= 24 q=28.0 size=     768KiB time=00:00:34.68 bitrate= 181.4kbits/s dup=0 drop=4 speed=0.976x elapsed=0:00:35.53    frame=  878 fps= 24 q=28.0 size=    1024KiB time=00:00:35.24 bitrate= 238.0kbits/s dup=0 drop=4 speed=0.978x elapsed=0:00:36.03    frame=  890 fps= 24 q=28.0 size=    1024KiB time=00:00:35.72 bitrate= 234.8kbits/s dup=0 drop=4 speed=0.978x elapsed=0:00:36.53    frame=  903 fps= 24 q=28.0 size=    1024KiB time=00:00:36.20 bitrate= 231.7kbits/s dup=0 drop=4 speed=0.977x elapsed=0:00:37.03    frame=  915 fps= 24 q=28.0 size=    1024KiB time=00:00:36.72 bitrate= 228.4kbits/s dup=0 drop=4 speed=0.978x elapsed=0:00:37.53    frame=  928 fps= 24 q=28.0 size=    1024KiB time=00:00:37.20 bitrate= 225.5kbits/s dup=0 drop=4 speed=0.978x elapsed=0:00:38.03    frame=  940 fps= 24 q=28.0 size=    1024KiB time=00:00:37.72 bitrate= 222.4kbits/s dup=0 drop=4 speed=0.979x elapsed=0:00:38.53    frame=  953 fps= 24 q=28.0 size=    1024KiB time=00:00:38.20 bitrate= 219.6kbits/s dup=0 drop=4 speed=0.979x elapsed=0:00:39.03    frame=  965 fps= 24 q=28.0 size=    1024KiB time=00:00:38.68 bitrate= 216.9kbits/s dup=0 drop=4 speed=0.978x elapsed=0:00:39.53    frame=  978 fps= 24 q=28.0 size=    1024KiB time=00:00:39.20 bitrate= 214.0kbits/s dup=0 drop=4 speed=0.979x elapsed=0:00:40.03    frame=  990 fps= 24 q=28.0 size=    1024KiB time=00:00:39.72 bitrate= 211.2kbits/s dup=0 drop=4 speed=0.98x elapsed=0:00:40.53    frame= 1003 fps= 24 q=28.0 size=    1024KiB time=00:00:40.20 bitrate= 208.7kbits/s dup=0 drop=4 speed=0.98x elapsed=0:00:41.03    frame= 1015 fps= 24 q=28.0 size=    1024KiB time=00:00:40.68 bitrate= 206.2kbits/s dup=0 drop=4 speed=0.979x elapsed=0:00:41.54    frame= 1028 fps= 24 q=28.0 size=    1024KiB time=00:00:41.20 bitrate= 203.6kbits/s dup=0 drop=4 speed=0.98x elapsed=0:00:42.04    frame= 1040 fps= 24 q=28.0 size=    1024KiB time=00:00:41.68 bitrate= 201.3kbits/s dup=0 drop=4 speed=0.98x elapsed=0:00:42.54    frame= 1053 fps= 24 q=28.0 size=    1024KiB time=00:00:42.20 bitrate= 198.8kbits/s dup=0 drop=4 speed=0.98x elapsed=0:00:43.04    frame= 1065 fps= 24 q=28.0 size=    1024KiB time=00:00:42.72 bitrate= 196.4kbits/s dup=0 drop=4 speed=0.981x elapsed=0:00:43.54    frame= 1077 fps= 24 q=28.0 size=    1024KiB time=00:00:43.16 bitrate= 194.4kbits/s dup=0 drop=4 speed=0.98x elapsed=0:00:44.05    frame= 1090 fps= 24 q=28.0 size=    1024KiB time=00:00:43.68 bitrate= 192.0kbits/s dup=0 drop=4 speed=0.98x elapsed=0:00:44.56    frame= 1103 fps= 24 q=28.0 size=    1024KiB time=00:00:44.24 bitrate= 189.6kbits/s dup=0 drop=4 speed=0.982x elapsed=0:00:45.06    frame= 1116 fps= 24 q=28.0 size=    1024KiB time=00:00:44.72 bitrate= 187.6kbits/s dup=0 drop=4 speed=0.981x elapsed=0:00:45.56    frame= 1128 fps= 24 q=28.0 size=    1280KiB time=00:00:45.20 bitrate= 232.0kbits/s dup=0 drop=4 speed=0.981x elapsed=0:00:46.06    frame= 1141 fps= 25 q=28.0 size=    1280KiB time=00:00:45.72 bitrate= 229.3kbits/s dup=0 drop=4 speed=0.982x elapsed=0:00:46.56    frame= 1153 fps= 24 q=28.0 size=    1280KiB time=00:00:46.20 bitrate= 227.0kbits/s dup=0 drop=4 speed=0.982x elapsed=0:00:47.06    frame= 1165 fps= 24 q=28.0 size=    1280KiB time=00:00:46.72 bitrate= 224.4kbits/s dup=0 drop=4 speed=0.982x elapsed=0:00:47.56    frame= 1178 fps= 25 q=28.0 size=    1280KiB time=00:00:47.24 bitrate= 222.0kbits/s dup=0 drop=4 speed=0.983x elapsed=0:00:48.06    frame= 1191 fps= 25 q=28.0 size=    1280KiB time=00:00:47.72 bitrate= 219.7kbits/s dup=0 drop=4 speed=0.983x elapsed=0:00:48.56    frame= 1203 fps= 25 q=28.0 size=    1280KiB time=00:00:48.24 bitrate= 217.4kbits/s dup=0 drop=4 speed=0.983x elapsed=0:00:49.06    frame= 1216 fps= 25 q=28.0 size=    1280KiB time=00:00:48.76 bitrate= 215.0kbits/s dup=0 drop=4 speed=0.984x elapsed=0:00:49.56    frame= 1228 fps= 25 q=28.0 size=    1280KiB time=00:00:49.20 bitrate= 213.1kbits/s dup=0 drop=4 speed=0.983x elapsed=0:00:50.06    frame= 1241 fps= 25 q=28.0 size=    1280KiB time=00:00:49.72 bitrate= 210.9kbits/s dup=0 drop=4 speed=0.983x elapsed=0:00:50.56    frame= 1253 fps= 25 q=28.0 size=    1280KiB time=00:00:50.20 bitrate= 208.9kbits/s dup=0 drop=4 speed=0.983x elapsed=0:00:51.06    frame= 1266 fps= 25 q=28.0 size=    1280KiB time=00:00:50.76 bitrate= 206.6kbits/s dup=0 drop=4 speed=0.984x elapsed=0:00:51.56    frame= 1278 fps= 25 q=28.0 size=    1280KiB time=00:00:51.20 bitrate= 204.8kbits/s dup=0 drop=4 speed=0.983x elapsed=0:00:52.06    frame= 1291 fps= 25 q=28.0 size=    1280KiB time=00:00:51.72 bitrate= 202.7kbits/s dup=0 drop=4 speed=0.984x elapsed=0:00:52.56    frame= 1303 fps= 25 q=28.0 size=    1280KiB time=00:00:52.24 bitrate= 200.7kbits/s dup=0 drop=4 speed=0.984x elapsed=0:00:53.07    frame= 1316 fps= 25 q=28.0 size=    1280KiB time=00:00:52.76 bitrate= 198.7kbits/s dup=0 drop=4 speed=0.985x elapsed=0:00:53.57    frame= 1328 fps= 25 q=28.0 size=    1280KiB time=00:00:53.20 bitrate= 197.1kbits/s dup=0 drop=4 speed=0.984x elapsed=0:00:54.07    frame= 1341 fps= 25 q=28.0 size=    1280KiB time=00:00:53.72 bitrate= 195.2kbits/s dup=0 drop=4 speed=0.984x elapsed=0:00:54.57    frame= 1353 fps= 25 q=28.0 size=    1280KiB time=00:00:54.20 bitrate= 193.5kbits/s dup=0 drop=4 speed=0.984x elapsed=0:00:55.07    frame= 1366 fps= 25 q=28.0 size=    1280KiB time=00:00:54.72 bitrate= 191.6kbits/s dup=0 drop=4 speed=0.985x elapsed=0:00:55.57    frame= 1378 fps= 25 q=28.0 size=    1536KiB time=00:00:55.24 bitrate= 227.8kbits/s dup=0 drop=4 speed=0.985x elapsed=0:00:56.07    frame= 1391 fps= 25 q=28.0 size=    1536KiB time=00:00:55.76 bitrate= 225.7kbits/s dup=0 drop=4 speed=0.986x elapsed=0:00:56.57    frame= 1403 fps= 25 q=28.0 size=    1536KiB time=00:00:56.20 bitrate= 223.9kbits/s dup=0 drop=4 speed=0.985x elapsed=0:00:57.07    frame= 1416 fps= 25 q=28.0 size=    1536KiB time=00:00:56.72 bitrate= 221.8kbits/s dup=0 drop=4 speed=0.985x elapsed=0:00:57.57    frame= 1428 fps= 25 q=28.0 size=    1536KiB time=00:00:57.20 bitrate= 220.0kbits/s dup=0 drop=4 speed=0.985x elapsed=0:00:58.07    frame= 1441 fps= 25 q=28.0 size=    1536KiB time=00:00:57.72 bitrate= 218.0kbits/s dup=0 drop=4 speed=0.985x elapsed=0:00:58.57    frame= 1454 fps= 25 q=28.0 size=    1536KiB time=00:00:58.24 bitrate= 216.1kbits/s dup=0 drop=4 speed=0.986x elapsed=0:00:59.07    frame= 1466 fps= 25 q=28.0 size=    1536KiB time=00:00:58.76 bitrate= 214.1kbits/s dup=0 drop=4 speed=0.986x elapsed=0:00:59.57    frame= 1479 fps= 25 q=28.0 size=    1536KiB time=00:00:59.28 bitrate= 212.3kbits/s dup=0 drop=4 speed=0.987x elapsed=0:01:00.07    frame= 1491 fps= 25 q=28.0 size=    1536KiB time=00:00:59.72 bitrate= 210.7kbits/s dup=0 drop=4 speed=0.986x elapsed=0:01:00.57    frame= 1504 fps= 25 q=28.0 size=    1536KiB time=00:01:00.28 bitrate= 208.7kbits/s dup=0 drop=4 speed=0.987x elapsed=0:01:01.07    frame= 1516 fps= 25 q=28.0 size=    1536KiB time=00:01:00.76 bitrate= 207.1kbits/s dup=0 drop=4 speed=0.987x elapsed=0:01:01.57    frame= 1529 fps= 25 q=28.0 size=    1536KiB time=00:01:01.24 bitrate= 205.5kbits/s dup=0 drop=4 speed=0.986x elapsed=0:01:02.07    frame= 1541 fps= 25 q=28.0 size=    1536KiB time=00:01:01.76 bitrate= 203.7kbits/s dup=0 drop=4 speed=0.987x elapsed=0:01:02.58    frame= 1554 fps= 25 q=28.0 size=    1536KiB time=00:01:02.28 bitrate= 202.0kbits/s dup=0 drop=4 speed=0.987x elapsed=0:01:03.08    frame= 1566 fps= 25 q=28.0 size=    1536KiB time=00:01:02.76 bitrate= 200.5kbits/s dup=0 drop=4 speed=0.987x elapsed=0:01:03.58    frame= 1579 fps= 25 q=28.0 size=    1536KiB time=00:01:03.28 bitrate= 198.8kbits/s dup=0 drop=4 speed=0.987x elapsed=0:01:04.08    frame= 1591 fps= 25 q=28.0 size=    1536KiB time=00:01:03.76 bitrate= 197.3kbits/s dup=0 drop=4 speed=0.987x elapsed=0:01:04.58    frame= 1604 fps= 25 q=28.0 size=    1536KiB time=00:01:04.24 bitrate= 195.9kbits/s dup=0 drop=4 speed=0.987x elapsed=0:01:05.08    frame= 1616 fps= 25 q=28.0 size=    1536KiB time=00:01:04.76 bitrate= 194.3kbits/s dup=0 drop=4 speed=0.987x elapsed=0:01:05.58    frame= 1629 fps= 25 q=28.0 size=    1792KiB time=00:01:05.24 bitrate= 225.0kbits/s dup=0 drop=4 speed=0.987x elapsed=0:01:06.08    frame= 1641 fps= 25 q=28.0 size=    1792KiB time=00:01:05.72 bitrate= 223.4kbits/s dup=0 drop=4 speed=0.987x elapsed=0:01:06.58    frame= 1654 fps= 25 q=28.0 size=    1792KiB time=00:01:06.28 bitrate= 221.5kbits/s dup=0 drop=4 speed=0.988x elapsed=0:01:07.08    frame= 1666 fps= 25 q=28.0 size=    1792KiB time=00:01:06.76 bitrate= 219.9kbits/s dup=0 drop=4 speed=0.988x elapsed=0:01:07.58    frame= 1679 fps= 25 q=28.0 size=    1792KiB time=00:01:07.28 bitrate= 218.2kbits/s dup=0 drop=4 speed=0.988x elapsed=0:01:08.08    frame= 1691 fps= 25 q=28.0 size=    1792KiB time=00:01:07.72 bitrate= 216.8kbits/s dup=0 drop=4 speed=0.987x elapsed=0:01:08.58    frame= 1704 fps= 25 q=28.0 size=    1792KiB time=00:01:08.24 bitrate= 215.1kbits/s dup=0 drop=4 speed=0.988x elapsed=0:01:09.08    frame= 1716 fps= 25 q=28.0 size=    1792KiB time=00:01:08.72 bitrate= 213.6kbits/s dup=0 drop=4 speed=0.987x elapsed=0:01:09.59    frame= 1729 fps= 25 q=28.0 size=    1792KiB time=00:01:09.28 bitrate= 211.9kbits/s dup=0 drop=4 speed=0.988x elapsed=0:01:10.09    frame= 1741 fps= 25 q=28.0 size=    1792KiB time=00:01:09.76 bitrate= 210.4kbits/s dup=0 drop=4 speed=0.988x elapsed=0:01:10.59    frame= 1754 fps= 25 q=28.0 size=    2048KiB time=00:01:10.28 bitrate= 238.7kbits/s dup=0 drop=4 speed=0.989x elapsed=0:01:11.09    frame= 1767 fps= 25 q=28.0 size=    2048KiB time=00:01:10.80 bitrate= 237.0kbits/s dup=0 drop=4 speed=0.989x elapsed=0:01:11.59    frame= 1779 fps= 25 q=28.0 size=    2048KiB time=00:01:11.24 bitrate= 235.5kbits/s dup=0 drop=4 speed=0.988x elapsed=0:01:12.09    frame= 1791 fps= 25 q=28.0 size=    2048KiB time=00:01:11.72 bitrate= 233.9kbits/s dup=0 drop=4 speed=0.988x elapsed=0:01:12.59    frame= 1804 fps= 25 q=28.0 size=    2048KiB time=00:01:12.24 bitrate= 232.2kbits/s dup=0 drop=4 speed=0.988x elapsed=0:01:13.09    frame= 1816 fps= 25 q=28.0 size=    2048KiB time=00:01:12.76 bitrate= 230.6kbits/s dup=0 drop=4 speed=0.989x elapsed=0:01:13.59    frame= 1829 fps= 25 q=28.0 size=    2048KiB time=00:01:13.24 bitrate= 229.1kbits/s dup=0 drop=4 speed=0.988x elapsed=0:01:14.09    frame= 1842 fps= 25 q=28.0 size=    2048KiB time=00:01:13.80 bitrate= 227.3kbits/s dup=0 drop=4 speed=0.989x elapsed=0:01:14.59    frame= 1854 fps= 25 q=28.0 size=    2048KiB time=00:01:14.28 bitrate= 225.9kbits/s dup=0 drop=4 speed=0.989x elapsed=0:01:15.09    frame= 1867 fps= 25 q=28.0 size=    2048KiB time=00:01:14.80 bitrate= 224.3kbits/s dup=0 drop=4 speed=0.989x elapsed=0:01:15.60    frame= 1879 fps= 25 q=28.0 size=    2048KiB time=00:01:15.24 bitrate= 223.0kbits/s dup=0 drop=4 speed=0.989x elapsed=0:01:16.10    frame= 1891 fps= 25 q=28.0 size=    2048KiB time=00:01:15.76 bitrate= 221.5kbits/s dup=0 drop=4 speed=0.989x elapsed=0:01:16.60    frame= 1904 fps= 25 q=28.0 size=    2048KiB time=00:01:16.28 bitrate= 219.9kbits/s dup=0 drop=4 speed=0.989x elapsed=0:01:17.10    frame= 1917 fps= 25 q=28.0 size=    2048KiB time=00:01:16.76 bitrate= 218.6kbits/s dup=0 drop=4 speed=0.989x elapsed=0:01:17.60    frame= 1929 fps= 25 q=28.0 size=    2048KiB time=00:01:17.24 bitrate= 217.2kbits/s dup=0 drop=4 speed=0.989x elapsed=0:01:18.10    frame= 1942 fps= 25 q=28.0 size=    2048KiB time=00:01:17.76 bitrate= 215.8kbits/s dup=0 drop=4 speed=0.989x elapsed=0:01:18.60    frame= 1954 fps= 25 q=28.0 size=    2048KiB time=00:01:18.28 bitrate= 214.3kbits/s dup=0 drop=4 speed=0.99x elapsed=0:01:19.10    frame= 1967 fps= 25 q=28.0 size=    2048KiB time=00:01:18.76 bitrate= 213.0kbits/s dup=0 drop=4 speed=0.989x elapsed=0:01:19.60    frame= 1979 fps= 25 q=28.0 size=    2048KiB time=00:01:19.28 bitrate= 211.6kbits/s dup=0 drop=4 speed=0.99x elapsed=0:01:20.11    frame= 1992 fps= 25 q=28.0 size=    2048KiB time=00:01:19.76 bitrate= 210.3kbits/s dup=0 drop=4 speed=0.989x elapsed=0:01:20.61    frame= 2004 fps= 25 q=28.0 size=    2304KiB time=00:01:20.24 bitrate= 235.2kbits/s dup=0 drop=4 speed=0.989x elapsed=0:01:21.11    frame= 2017 fps= 25 q=28.0 size=    2304KiB time=00:01:20.76 bitrate= 233.7kbits/s dup=0 drop=4 speed=0.99x elapsed=0:01:21.61    frame= 2029 fps= 25 q=28.0 size=    2304KiB time=00:01:21.28 bitrate= 232.2kbits/s dup=0 drop=4 speed=0.99x elapsed=0:01:22.11    frame= 2042 fps= 25 q=28.0 size=    2304KiB time=00:01:21.76 bitrate= 230.9kbits/s dup=0 drop=4 speed=0.99x elapsed=0:01:22.61    frame= 2054 fps= 25 q=28.0 size=    2304KiB time=00:01:22.24 bitrate= 229.5kbits/s dup=0 drop=4 speed=0.99x elapsed=0:01:23.11    frame= 2067 fps= 25 q=28.0 size=    2304KiB time=00:01:22.76 bitrate= 228.1kbits/s dup=0 drop=4 speed=0.99x elapsed=0:01:23.61    frame= 2079 fps= 25 q=28.0 size=    2304KiB time=00:01:23.28 bitrate= 226.6kbits/s dup=0 drop=4 speed=0.99x elapsed=0:01:24.11    frame= 2092 fps= 25 q=28.0 size=    2304KiB time=00:01:23.76 bitrate= 225.3kbits/s dup=0 drop=4 speed=0.99x elapsed=0:01:24.61    frame= 2104 fps= 25 q=28.0 size=    2304KiB time=00:01:24.24 bitrate= 224.1kbits/s dup=0 drop=4 speed=0.99x elapsed=0:01:25.11    frame= 2117 fps= 25 q=28.0 size=    2304KiB time=00:01:24.80 bitrate= 222.6kbits/s dup=0 drop=4 speed=0.99x elapsed=0:01:25.61    frame= 2129 fps= 25 q=28.0 size=    2304KiB time=00:01:25.24 bitrate= 221.4kbits/s dup=0 drop=4 speed=0.99x elapsed=0:01:26.11    frame= 2142 fps= 25 q=28.0 size=    2304KiB time=00:01:25.76 bitrate= 220.1kbits/s dup=0 drop=4 speed=0.99x elapsed=0:01:26.61    frame= 2154 fps= 25 q=28.0 size=    2304KiB time=00:01:26.28 bitrate= 218.8kbits/s dup=0 drop=4 speed=0.99x elapsed=0:01:27.11    frame= 2167 fps= 25 q=28.0 size=    2304KiB time=00:01:26.76 bitrate= 217.5kbits/s dup=0 drop=4 speed=0.99x elapsed=0:01:27.61    frame= 2180 fps= 25 q=28.0 size=    2304KiB time=00:01:27.28 bitrate= 216.3kbits/s dup=0 drop=4 speed=0.99x elapsed=0:01:28.11    frame= 2192 fps= 25 q=28.0 size=    2304KiB time=00:01:27.76 bitrate= 215.1kbits/s dup=0 drop=4 speed=0.99x elapsed=0:01:28.61    frame= 2205 fps= 25 q=28.0 size=    2304KiB time=00:01:28.28 bitrate= 213.8kbits/s dup=0 drop=4 speed=0.991x elapsed=0:01:29.11    frame= 2217 fps= 25 q=28.0 size=    2304KiB time=00:01:28.76 bitrate= 212.6kbits/s dup=0 drop=4 speed=0.99x elapsed=0:01:29.62    frame= 2230 fps= 25 q=28.0 size=    2304KiB time=00:01:29.28 bitrate= 211.4kbits/s dup=0 drop=4 speed=0.991x elapsed=0:01:30.12    frame= 2242 fps= 25 q=28.0 size=    2304KiB time=00:01:29.76 bitrate= 210.3kbits/s dup=0 drop=4 speed=0.99x elapsed=0:01:30.62    frame= 2255 fps= 25 q=28.0 size=    2560KiB time=00:01:30.28 bitrate= 232.3kbits/s dup=0 drop=4 speed=0.991x elapsed=0:01:31.12    frame= 2267 fps= 25 q=28.0 size=    2560KiB time=00:01:30.76 bitrate= 231.1kbits/s dup=0 drop=4 speed=0.99x elapsed=0:01:31.63    frame= 2280 fps= 25 q=28.0 size=    2560KiB time=00:01:31.28 bitrate= 229.7kbits/s dup=0 drop=4 speed=0.991x elapsed=0:01:32.13    frame= 2293 fps= 25 q=28.0 size=    2560KiB time=00:01:31.84 bitrate= 228.3kbits/s dup=0 drop=4 speed=0.991x elapsed=0:01:32.63    frame= 2305 fps= 25 q=28.0 size=    2560KiB time=00:01:32.28 bitrate= 227.3kbits/s dup=0 drop=4 speed=0.991x elapsed=0:01:33.13    frame= 2317 fps= 25 q=28.0 size=    2560KiB time=00:01:32.80 bitrate= 226.0kbits/s dup=0 drop=4 speed=0.991x elapsed=0:01:33.63    frame= 2330 fps= 25 q=28.0 size=    2560KiB time=00:01:33.32 bitrate= 224.7kbits/s dup=0 drop=4 speed=0.991x elapsed=0:01:34.13    frame= 2343 fps= 25 q=28.0 size=    2560KiB time=00:01:33.80 bitrate= 223.6kbits/s dup=0 drop=4 speed=0.991x elapsed=0:01:34.63    frame= 2355 fps= 25 q=28.0 size=    2560KiB time=00:01:34.28 bitrate= 222.4kbits/s dup=0 drop=4 speed=0.991x elapsed=0:01:35.13    frame= 2368 fps= 25 q=28.0 size=    2560KiB time=00:01:34.84 bitrate= 221.1kbits/s dup=0 drop=4 speed=0.992x elapsed=0:01:35.63    frame= 2380 fps= 25 q=28.0 size=    2816KiB time=00:01:35.28 bitrate= 242.1kbits/s dup=0 drop=4 speed=0.991x elapsed=0:01:36.13    frame= 2392 fps= 25 q=28.0 size=    2816KiB time=00:01:35.80 bitrate= 240.8kbits/s dup=0 drop=4 speed=0.991x elapsed=0:01:36.63    frame= 2405 fps= 25 q=28.0 size=    2816KiB time=00:01:36.28 bitrate= 239.6kbits/s dup=0 drop=4 speed=0.991x elapsed=0:01:37.13    frame= 2418 fps= 25 q=28.0 size=    2816KiB time=00:01:36.84 bitrate= 238.2kbits/s dup=0 drop=4 speed=0.992x elapsed=0:01:37.64    frame= 2430 fps= 25 q=28.0 size=    2816KiB time=00:01:37.32 bitrate= 237.0kbits/s dup=0 drop=4 speed=0.992x elapsed=0:01:38.14    frame= 2443 fps= 25 q=28.0 size=    2816KiB time=00:01:37.80 bitrate= 235.9kbits/s dup=0 drop=4 speed=0.991x elapsed=0:01:38.64    frame= 2455 fps= 25 q=28.0 size=    2816KiB time=00:01:38.28 bitrate= 234.7kbits/s dup=0 drop=4 speed=0.991x elapsed=0:01:39.14    frame= 2467 fps= 25 q=28.0 size=    2816KiB time=00:01:38.76 bitrate= 233.6kbits/s dup=0 drop=4 speed=0.991x elapsed=0:01:39.64    frame= 2480 fps= 25 q=28.0 size=    2816KiB time=00:01:39.28 bitrate= 232.4kbits/s dup=0 drop=4 speed=0.991x elapsed=0:01:40.14    frame= 2493 fps= 25 q=28.0 size=    2816KiB time=00:01:39.84 bitrate= 231.1kbits/s dup=0 drop=4 speed=0.992x elapsed=0:01:40.64    frame= 2505 fps= 25 q=28.0 size=    2816KiB time=00:01:40.28 bitrate= 230.0kbits/s dup=0 drop=4 speed=0.991x elapsed=0:01:41.14    frame= 2518 fps= 25 q=28.0 size=    2816KiB time=00:01:40.80 bitrate= 228.9kbits/s dup=0 drop=4 speed=0.992x elapsed=0:01:41.64    frame= 2530 fps= 25 q=28.0 size=    2816KiB time=00:01:41.32 bitrate= 227.7kbits/s dup=0 drop=4 speed=0.992x elapsed=0:01:42.14    [out#0/matroska @ 0x5575af0f4500] Error writing trailer: Immediate exit requested
[out#0/matroska @ 0x5575af0f4500] Error closing file: Immediate exit requested
[out#0/matroska @ 0x5575af0f4500] video:3543KiB audio:0KiB subtitle:0KiB other streams:0KiB global headers:0KiB muxing overhead: unknown
frame= 2563 fps= 25 q=-1.0 Lsize=    2816KiB time=00:01:42.60 bitrate= 224.8kbits/s dup=0 drop=4 speed=0.998x elapsed=0:01:42.76    
[libx264 @ 0x5575af0f5f00] frame I:11    Avg QP:11.81  size:131644
[libx264 @ 0x5575af0f5f00] frame P:648   Avg QP:17.36  size:  2050
[libx264 @ 0x5575af0f5f00] frame B:1904  Avg QP:24.56  size:   447
[libx264 @ 0x5575af0f5f00] consecutive B-frames:  0.9%  0.2%  0.0% 98.9%
[libx264 @ 0x5575af0f5f00] mb I  I16..4: 87.8%  1.8% 10.4%
[libx264 @ 0x5575af0f5f00] mb P  I16..4:  0.3%  0.1%  0.0%  P16..4:  0.3%  0.2%  0.1%  0.0%  0.0%    skip:99.1%
[libx264 @ 0x5575af0f5f00] mb B  I16..4:  0.0%  0.0%  0.0%  B16..8:  0.2%  0.1%  0.0%  direct: 0.1%  skip:99.6%  L0:46.1% L1:47.9% BI: 6.0%
[libx264 @ 0x5575af0f5f00] 8x8 transform intra:4.3% inter:2.9%
[libx264 @ 0x5575af0f5f00] coded y,uvDC,uvAC intra: 15.3% 22.7% 18.7% inter: 0.1% 0.1% 0.1%
[libx264 @ 0x5575af0f5f00] i16 v,h,dc,p: 69% 28%  2%  0%
[libx264 @ 0x5575af0f5f00] i8 v,h,dc,ddl,ddr,vr,hd,vl,hu: 14% 23% 56%  1%  1%  3%  3%  1%  1%
[libx264 @ 0x5575af0f5f00] i4 v,h,dc,ddl,ddr,vr,hd,vl,hu: 34% 26% 20%  3%  3%  5%  3%  4%  3%
[libx264 @ 0x5575af0f5f00] i8c dc,h,v,p: 60% 29% 10%  1%
[libx264 @ 0x5575af0f5f00] Weighted P-Frames: Y:0.0% UV:0.0%
[libx264 @ 0x5575af0f5f00] kb/s:282.47
Exiting normally, received signal 2.
